<svg width="1200" height="1000" viewBox="0 0 1200 1000" xmlns="http://www.w3.org/2000/svg">
  <defs>
    <marker id="arrow" markerWidth="8" markerHeight="8" refX="7" refY="4" orient="auto">
      <path d="M0,0 L8,4 L0,8 Z" fill="#94a3b8"/>
    </marker>
    <marker id="arrow-active" markerWidth="8" markerHeight="8" refX="7" refY="4" orient="auto">
      <path d="M0,0 L8,4 L0,8 Z" fill="#6c5ce7"/>
    </marker>
    <path id="anim_loop" d="M1100 155 L1160 155 L1160 950 L20 950 L20 155 L50 155" fill="none"/>
    <circle id="pt" r="3" fill="#0ea5e9"/>
  </defs>

  <rect width="1200" height="1000" fill="#fcfcfd" />
  
  <g transform="translate(50, 60)">
    <text x="550" y="-20" text-anchor="middle" font-family="PingFang SC, monospace" font-size="20" font-weight="bold" fill="#1e293b">EDGEx_OS 边缘计算集成架构 (V2.4.0)</text>
    
    <rect x="0" y="20" width="280" height="150" fill="none" stroke="#0ea5e9" stroke-width="1.5" stroke-dasharray="4,2"/>
    <text x="10" y="15" font-family="PingFang SC, monospace" font-size="12" fill="#0ea5e9" font-weight="bold">01 数据采集层 (Ingestion)</text>
    <g transform="translate(20, 50)">
      <rect width="110" height="35" fill="#fff" stroke="#cbd5e1" />
      <text x="55" y="22" text-anchor="middle" font-family="monospace" font-size="10">Modbus/S7</text>
      <rect x="120" width="110" height="35" fill="#fff" stroke="#cbd5e1" />
      <text x="175" y="22" text-anchor="middle" font-family="monospace" font-size="10">OPC-UA</text>
      <rect y="45" width="230" height="35" fill="#fff" stroke="#cbd5e1" />
      <text x="115" y="67" text-anchor="middle" font-family="monospace" font-size="10">MQTT / HTTP API</text>
    </g>

    <rect x="400" y="20" width="350" height="150" fill="#f5f3ff" stroke="#6c5ce7" stroke-width="1.5"/>
    <text x="410" y="15" font-family="PingFang SC, monospace" font-size="12" fill="#6c5ce7" font-weight="bold">02 核心引擎层 (Processing)</text>
    <g transform="translate(420, 50)">
      <rect width="140" height="80" fill="#fff" stroke="#6c5ce7" stroke-dasharray="2,2" />
      <text x="70" y="40" text-anchor="middle" font-family="PingFang SC, monospace" font-size="11">影子设备</text>
      <text x="70" y="55" text-anchor="middle" font-family="monospace" font-size="9" fill="#94a3b8">Virtual Shadow Engine</text>
      
      <rect x="170" width="140" height="80" fill="#fff" stroke="#6c5ce7" stroke-dasharray="2,2" />
      <text x="240" y="40" text-anchor="middle" font-family="PingFang SC, monospace" font-size="11">规则解析器</text>
      <text x="240" y="55" text-anchor="middle" font-family="monospace" font-size="9" fill="#94a3b8">Rule Engine</text>
    </g>

    <rect x="850" y="20" width="250" height="150" fill="none" stroke="#334155" stroke-width="1.5"/>
    <text x="860" y="15" font-family="PingFang SC, monospace" font-size="12" fill="#334155" font-weight="bold">03 导出与同步 (Export)</text>
    <g transform="translate(870, 50)">
      <rect width="210" height="35" fill="#fff" stroke="#cbd5e1" />
      <text x="105" y="22" text-anchor="middle" font-family="PingFang SC, monospace" font-size="10">设备画像 (Device Profile)</text>
      <rect y="45" width="210" height="35" fill="#fff" stroke="#cbd5e1" />
      <text x="105" y="67" text-anchor="middle" font-family="PingFang SC, monospace" font-size="10">北向联动控制台同步</text>
    </g>

    <path d="M280 95 L400 95" stroke="#6c5ce7" stroke-width="1.5" marker-end="url(#arrow-active)" />
    <path d="M750 95 L850 95" stroke="#6c5ce7" stroke-width="1.5" marker-end="url(#arrow-active)" />
  </g>

  <g transform="translate(50, 280)">
    <rect width="1100" height="320" fill="#fff" stroke="#e2e8f0" stroke-width="1" />
    <text x="20" y="25" font-family="PingFang SC, monospace" font-size="14" font-weight="bold" fill="#1e293b">规则逻辑矩阵 (Logic Matrix)</text>
    
    <g transform="translate(30, 60)">
      <rect width="240" height="230" fill="#f8fafc" stroke="#6c5ce7" stroke-width="1"/>
      <text x="120" y="25" text-anchor="middle" font-family="PingFang SC, monospace" font-size="12" font-weight="bold">阈值判定 (Threshold)</text>
      <rect x="20" y="50" width="200" height="40" fill="#fff" stroke="#e2e8f0"/>
      <text x="30" y="75" font-family="monospace" font-size="10">IF x &gt; High_Bound</text>
      <rect x="20" y="100" width="200" height="40" fill="#fff" stroke="#e2e8f0"/>
      <text x="30" y="125" font-family="monospace" font-size="10">IF x &lt; Low_Bound</text>
      <path d="M220 70 L300 130" stroke="#cbd5e1" stroke-width="1" fill="none" marker-end="url(#arrow)"/>
    </g>

    <g transform="translate(320, 60)">
      <rect width="240" height="230" fill="#f8fafc" stroke="#6c5ce7" stroke-width="1"/>
      <text x="120" y="25" text-anchor="middle" font-family="PingFang SC, monospace" font-size="12" font-weight="bold">窗口算法 (Window)</text>
      <circle cx="120" cy="110" r="40" fill="none" stroke="#6c5ce7" stroke-dasharray="4,2" />
      <text x="120" y="115" text-anchor="middle" font-family="PingFang SC, monospace" font-size="10">滑动平均 / 累计</text>
      <path d="M220 130 L300 130" stroke="#cbd5e1" stroke-width="1" fill="none" marker-end="url(#arrow)"/>
    </g>

    <path d="M560 175 L620 175" stroke="#6c5ce7" stroke-width="2" marker-end="url(#arrow-active)" />

    <g transform="translate(620, 60)">
      <rect width="450" height="230" fill="#1e293b" rx="2"/>
      <text x="225" y="25" text-anchor="middle" font-family="PingFang SC, monospace" font-size="12" font-weight="bold" fill="#fff">动作执行器 (Executors)</text>
      <g transform="translate(30, 50)">
        <text x="0" y="20" font-family="monospace" font-size="11" fill="#0ea5e9">[指令] 设备反控 (Write_Device)</text>
        <text x="0" y="50" font-family="monospace" font-size="11" fill="#22c55e">[消息] MQTT 推送 (Publish)</text>
        <text x="0" y="80" font-family="monospace" font-size="11" fill="#eab308">[告警] 钉钉/邮件 (Webhook)</text>
        <text x="0" y="110" font-family="monospace" font-size="11" fill="#94a3b8">[存储] 本地持久化 (SQLite)</text>
      </g>
    </g>
  </g>

  <g transform="translate(50, 640)">
    <text x="0" y="-15" font-family="PingFang SC, monospace" font-size="14" font-weight="bold" fill="#1e293b">典型应用场景 (Use Cases)</text>
    <rect x="0" y="0" width="340" height="180" fill="#fff" stroke="#e2e8f0"/>
    <text x="20" y="30" font-family="PingFang SC, monospace" font-size="12" font-weight="bold">智能工厂：CNC 预测性维护</text>
    <text x="20" y="60" font-family="PingFang SC, monospace" font-size="10" fill="#64748b">监测：主轴振动频率 (FFT)</text>
    <text x="20" y="85" font-family="PingFang SC, monospace" font-size="10" fill="#64748b">逻辑：偏离基准值 &gt; 15%</text>
    <text x="20" y="110" font-family="PingFang SC, monospace" font-size="10" fill="#6c5ce7">执行：自动停机并推送维保工单</text>

    <rect x="380" y="0" width="340" height="180" fill="#fff" stroke="#e2e8f0"/>
    <text x="400" y="30" font-family="PingFang SC, monospace" font-size="12" font-weight="bold">智慧能源：配电房负荷平衡</text>
    <text x="400" y="60" font-family="PingFang SC, monospace" font-size="10" fill="#64748b">监测：三相电流 / 有功功率</text>
    <text x="400" y="85" font-family="PingFang SC, monospace" font-size="10" fill="#64748b">逻辑：峰谷电价阶梯计算</text>
    <text x="400" y="110" font-family="PingFang SC, monospace" font-size="10" fill="#6c5ce7">执行：动态切断三级非必要负荷</text>

    <rect x="760" y="0" width="340" height="180" fill="#fff" stroke="#e2e8f0"/>
    <text x="780" y="30" font-family="PingFang SC, monospace" font-size="12" font-weight="bold">智慧楼宇：空调节能闭环</text>
    <text x="780" y="60" font-family="PingFang SC, monospace" font-size="10" fill="#64748b">监测：人流量 + 二氧化碳浓度</text>
    <text x="780" y="85" font-family="PingFang SC, monospace" font-size="10" fill="#64748b">逻辑：CO2 &lt; 400ppm 且无人</text>
    <text x="780" y="110" font-family="PingFang SC, monospace" font-size="10" fill="#6c5ce7">执行：调低新风频率 30%</text>
  </g>

  <path d="M1100 155 L1160 155 L1160 950 L20 950 L20 155 L50 155" stroke="#94a3b8" stroke-width="1.5" stroke-dasharray="8,4" fill="none" marker-end="url(#arrow)"/>
  
  <use href="#pt">
    <animateMotion dur="6s" repeatCount="indefinite">
      <mpath href="#anim_loop"/>
    </animateMotion>
  </use>
  <use href="#pt">
    <animateMotion dur="6s" begin="2s" repeatCount="indefinite">
      <mpath href="#anim_loop"/>
    </animateMotion>
  </use>
  <use href="#pt">
    <animateMotion dur="6s" begin="4s" repeatCount="indefinite">
      <mpath href="#anim_loop"/>
    </animateMotion>
  </use>

  <text x="600" y="940" text-anchor="middle" font-family="PingFang SC, monospace" font-size="11" fill="#94a3b8">反控闭环：从执行结果到采集策略的自动优化 (Closed-loop Optimization)</text>
</svg>
