<svg width="1400" height="1000" viewBox="0 0 1400 1000" xmlns="http://www.w3.org/2000/svg">
  <defs>
    <radialGradient id="bg_grad" cx="50%" cy="50%" r="70%">
      <stop offset="0%" stop-color="#f8fafc" />
      <stop offset="100%" stop-color="#f1f5f9" />
    </radialGradient>

    <pattern id="grid" width="50" height="50" patternUnits="userSpaceOnUse">
      <path d="M 50 0 L 0 0 0 50" fill="none" stroke="#0f172a" stroke-width="1" opacity="0.07"/>
    </pattern>

    <filter id="glow" x="-20%" y="-20%" width="140%" height="140%">
      <feGaussianBlur stdDeviation="2.5" result="blur" />
      <feComposite in="SourceGraphic" in2="blur" operator="over" />
    </filter>

    <style>
      .panel-bg { fill: #ffffff; stroke-width: 2; fill-opacity: 0.95; }
      .text-label { fill: #1e293b; font-family: 'PingFang SC', 'Microsoft YaHei', sans-serif; font-weight: 800; font-size: 18px; }
      .text-detail { fill: #475569; font-family: 'PingFang SC', 'Microsoft YaHei', sans-serif; font-size: 14px; font-weight: 500; }
      .text-api { fill: #0ea5e9; font-family: 'Courier New', monospace; font-size: 15px; font-weight: bold; }
      .line-main { fill: none; stroke: #cbd5e1; stroke-width: 2.5; }
      .input-box { fill: #ffffff; stroke: #cbd5e1; stroke-width: 1; }
      .input-label { fill: #1e293b; font-family: 'PingFang SC', 'Microsoft YaHei', sans-serif; font-size: 14px; }
      .btn-bg { fill: #38bdf8; cursor: pointer; }
      .btn-text { fill: #ffffff; font-family: 'PingFang SC', 'Microsoft YaHei', sans-serif; font-size: 16px; font-weight: bold; }
    </style>
  </defs>

  <rect width="100%" height="100%" fill="url(#bg_grad)"/>
  <rect width="100%" height="100%" fill="url(#grid)" />

  <g transform="translate(0, 40)">
    <g transform="translate(340, 0)">
      <rect width="210" height="105" rx="12" class="panel-bg" stroke="#f59e0b" filter="url(#glow)"/>
      <text x="105" y="35" text-anchor="middle" class="text-label">MQTT 适配器</text>
      <text x="105" y="65" text-anchor="middle" class="text-detail">认证 • 限流</text>
      <text x="105" y="88" text-anchor="middle" class="text-detail">动态主题挂载</text>
      <path id="up_l1" d="M105 135 V105" class="line-main"/>
      <circle r="4" fill="#f59e0b"><animateMotion dur="1.2s" repeatCount="indefinite"><mpath href="#up_l1"/></animateMotion></circle>
    </g>
    <g transform="translate(595, 0)">
      <rect width="210" height="105" rx="12" class="panel-bg" stroke="#0ea5e9" filter="url(#glow)"/>
      <text x="105" y="35" text-anchor="middle" class="text-label">OPC UA 服务端</text>
      <text x="105" y="65" text-anchor="middle" class="text-detail">审计日志 • 鉴权</text>
      <text x="105" y="88" text-anchor="middle" class="text-detail">一致性校验</text>
      <path id="up_l2" d="M105 135 V105" class="line-main"/>
      <circle r="4" fill="#0ea5e9"><animateMotion dur="1.5s" repeatCount="indefinite"><mpath href="#up_l2"/></animateMotion></circle>
    </g>
    <g transform="translate(850, 0)">
      <rect width="210" height="105" rx="12" class="panel-bg" stroke="#8b5cf6" filter="url(#glow)"/>
      <text x="105" y="35" text-anchor="middle" class="text-label">REST/HTTP(S)</text>
      <text x="105" y="65" text-anchor="middle" class="text-detail">API 密钥 • TLS</text>
      <text x="105" y="88" text-anchor="middle" class="text-detail">审计日志</text>
      <path id="up_l3" d="M105 135 V105" class="line-main"/>
      <circle r="4" fill="#8b5cf6"><animateMotion dur="2s" repeatCount="indefinite"><mpath href="#up_l3"/></animateMotion></circle>
    </g>
    <path d="M445 135 H955" class="line-main" />
  </g>

  <text x="700" y="200" class="text-api" text-anchor="middle">影子服务接口: 读 / 写 / 订阅 (Shadow Service API)</text>

  <g transform="translate(300, 240)">
    <rect width="800" height="400" rx="16" class="panel-bg" stroke="#64748b" stroke-opacity="0.5" filter="url(#glow)" />
    
    <text x="400" y="50" text-anchor="middle" class="text-label" style="font-size: 24px;">网关系统登录 (Login)</text>
    
    <g transform="translate(100, 90)">
      <text x="0" y="15" class="input-label">用户名 / Username</text>
      <rect x="0" y="25" width="600" height="50" rx="8" class="input-box" />
      <text x="15" y="58" class="text-detail" style="fill: #94a3b8;">请输入您的用户名</text>
    </g>

    <g transform="translate(100, 185)">
      <text x="0" y="15" class="input-label">密码 / Password</text>
      <rect x="0" y="25" width="600" height="50" rx="8" class="input-box" />
      <text x="15" y="58" class="text-detail" style="fill: #94a3b8;">••••••••</text>
    </g>

    <g transform="translate(100, 290)">
      <rect x="0" y="0" width="600" height="55" rx="8" class="btn-bg" />
      <text x="300" y="35" text-anchor="middle" class="btn-text">立即登录</text>
    </g>

    <text x="400" y="375" text-anchor="middle" class="text-detail" style="fill: #94a3b8; font-size: 12px;">© 2023 工业物联安全网关. All rights reserved.</text>
  </g>

  <text x="700" y="685" class="text-api" text-anchor="middle">影子数据入口 (Shadow Ingress)</text>
  <path id="path_ingress" d="M700 640 V710" class="line-main" />
  <circle r="4" fill="#16a34a"><animateMotion dur="2s" repeatCount="indefinite"><mpath href="#path_ingress"/></animateMotion></circle>

  <g transform="translate(300, 710)">
    <rect width="800" height="90" rx="12" class="panel-bg" stroke="#16a34a" stroke-dasharray="6,3" />
    <text x="400" y="35" text-anchor="middle" class="text-label">数据点层 (预处理标准化)</text>
    <text x="400" y="68" text-anchor="middle" class="text-detail">归一化 • 单位转换 • 时间戳对齐 • 批量发布 (QoS 0/1/2)</text>
  </g>

  <path id="path_to_bus" d="M700 800 V860" class="line-main" />
  <path id="bus_horizontal" d="M100 860 L1300 860" class="line-main" />
  
  <g transform="translate(100, 930)">
    <g transform="translate(0,0)">
      <rect width="180" height="80" rx="8" class="panel-bg" stroke="#f59e0b" filter="url(#glow)" /><text x="90" y="45" text-anchor="middle" class="text-label">MODBUS</text>
      <path id="l1" d="M90 0 V-70" class="line-main"/><circle r="3" fill="#f59e0b"><animateMotion dur="1s" repeatCount="indefinite"><mpath href="#l1"/></animateMotion></circle>
    </g>
    <g transform="translate(204,0)">
      <rect width="180" height="80" rx="8" class="panel-bg" stroke="#0ea5e9" filter="url(#glow)" /><text x="90" y="45" text-anchor="middle" class="text-label">CAN 总线</text>
      <path id="l2" d="M90 0 V-70" class="line-main"/><circle r="3" fill="#0ea5e9"><animateMotion dur="1.5s" repeatCount="indefinite"><mpath href="#l2"/></animateMotion></circle>
    </g>
    <g transform="translate(408,0)">
      <rect width="180" height="80" rx="8" class="panel-bg" stroke="#ec4899" filter="url(#glow)" /><text x="90" y="45" text-anchor="middle" class="text-label">OPC-UA</text>
      <path id="l3" d="M90 0 V-70" class="line-main"/><circle r="3" fill="#ec4899"><animateMotion dur="1.3s" repeatCount="indefinite"><mpath href="#l3"/></animateMotion></circle>
    </g>
    <g transform="translate(612,0)">
      <rect width="180" height="80" rx="8" class="panel-bg" stroke="#16a34a" filter="url(#glow)" /><text x="90" y="45" text-anchor="middle" class="text-label">BACNET</text>
      <path id="l4" d="M90 0 V-70" class="line-main"/><circle r="3" fill="#16a34a"><animateMotion dur="2s" repeatCount="indefinite"><mpath href="#l4"/></animateMotion></circle>
    </g>
    <g transform="translate(816,0)">
      <rect width="180" height="80" rx="8" class="panel-bg" stroke="#eab308" filter="url(#glow)" /><text x="90" y="45" text-anchor="middle" class="text-label">SNMP</text>
      <path id="l5" d="M90 0 V-70" class="line-main"/><circle r="3" fill="#eab308"><animateMotion dur="1.8s" repeatCount="indefinite"><mpath href="#l5"/></animateMotion></circle>
    </g>
    <g transform="translate(1020,0)">
      <rect width="180" height="80" rx="8" class="panel-bg" stroke="#8b5cf6" filter="url(#glow)" /><text x="90" y="45" text-anchor="middle" class="text-label">西门子 S7</text>
      <path id="l6" d="M90 0 V-70" class="line-main"/><circle r="3" fill="#8b5cf6"><animateMotion dur="2.2s" repeatCount="indefinite"><mpath href="#l6"/></animateMotion></circle>
    </g>
  </g>

</svg>
