<?xml version="1.0" encoding="UTF-8"?>
<svg width="1400" height="700" viewBox="0 0 1400 700" xmlns="http://www.w3.org/2000/svg">
  <defs>
    <filter id="agg_glow" x="-20%" y="-20%" width="140%" height="140%">
      <feGaussianBlur stdDeviation="2" result="blur"/>
      <feComposite in="SourceGraphic" in2="blur" operator="over"/>
    </filter>
    <clipPath id="clip_agg_a"><rect width="200" height="85" rx="10"/></clipPath>
    <clipPath id="clip_agg_b"><rect width="200" height="85" rx="10"/></clipPath>
    <clipPath id="clip_agg_c"><rect width="200" height="85" rx="10"/></clipPath>
    <linearGradient id="grad_blue" x1="0%" y1="0%" x2="100%" y2="100%">
      <stop offset="0%" stop-color="#ffffff"/>
      <stop offset="100%" stop-color="#f0f9ff"/>
    </linearGradient>
    <linearGradient id="grad_purple" x1="0%" y1="0%" x2="100%" y2="100%">
      <stop offset="0%" stop-color="#ffffff"/>
      <stop offset="100%" stop-color="#f5f3ff"/>
    </linearGradient>
    <linearGradient id="grad_amber" x1="0%" y1="0%" x2="100%" y2="100%">
      <stop offset="0%" stop-color="#ffffff"/>
      <stop offset="100%" stop-color="#fffbeb"/>
    </linearGradient>
    <style>
      .bg-sub { fill:#f8fafc; stroke:#e2e8f0; stroke-width:1; }
      .node-raw { fill:#ffffff; stroke:#0ea5e9; stroke-width:2; }
      .node-raw-amber { fill:#ffffff; stroke:#f59e0b; stroke-width:2; }
      .node-raw-gray { fill:#ffffff; stroke:#64748b; stroke-width:1.5; }
      .node-calc { fill:#ffffff; stroke:#8b5cf6; stroke-width:2; }
      .text-title { fill:#1e293b; font-family:'Segoe UI',sans-serif; font-weight:bold; font-size:16px; }
      .text-code { fill:#64748b; font-family:'Courier New',monospace; font-size:11px; }
      .flow-line { fill:none; stroke:#cbd5e1; stroke-width:1.5; marker-end:url(#arrowhead); }
      .flow-line-active { stroke:#94a3b8; stroke-dasharray:4; animation:dash 20s linear infinite; }
      @keyframes dash { to { stroke-dashoffset:-1000; } }
      .v-panel { stroke-width:1.5; filter:drop-shadow(0 2px 4px rgba(0,0,0,0.05)); }
      .v-value { font-family:'Segoe UI',Arial; font-weight:800; font-size:22px; fill:#1e293b; }
      .v-label { font-size:13px; fill:#475569; font-weight:bold; }
      .sparkline { fill:none; stroke:#0ea5e9; stroke-width:1.5; opacity:0.6; }
      .title-bg { fill:#f5f3ff; }
      .title-bg-amber { fill:#fef3c7; }
    </style>
    <marker id="arrowhead" viewBox="0 0 10 10" refX="9" refY="5" markerUnits="strokeWidth" markerWidth="6" markerHeight="6" orient="auto">
      <path d="M 0 0 L 10 5 L 0 10 z" fill="#cbd5e1"/>
    </marker>
  </defs>

  <rect width="1360" height="660" x="20" y="20" rx="15" class="bg-sub"/>
  <text x="700" y="55" text-anchor="middle" class="text-title">跨设备数据聚合：Virtual Shadow Engine 产线效率与综合指标</text>

  <g id="logic-wires">
    <path id="wire_p1_sum" d="M 260,132.5 H 380 V 175 H 580" class="flow-line flow-line-active"/>
    <path id="wire_p2_sum" d="M 260,217.5 H 380 V 175 H 580" class="flow-line flow-line-active"/>
    
    <path id="wire_temp_avg" d="M 260,325 H 580" class="flow-line flow-line-active" style="stroke:#f59e0b;"/>
    
    <path id="wire_rt_oee" d="M 260,465 H 580" class="flow-line flow-line-active" style="stroke:#64748b;"/>
    
    <path id="wire_sum_out" d="M 780,175 H 1020" class="flow-line" style="stroke:#8b5cf6;"/>
    
    <path id="wire_avg_out" d="M 780,325 H 1020" class="flow-line" style="stroke:#f59e0b;"/>
    
    <path id="wire_oee_out" d="M 780,465 H 1020" class="flow-line" style="stroke:#6366f1;"/>
  </g>

  <g transform="translate(80, 100)">
    <text x="0" y="-20" class="text-title" style="font-size:13px; fill:#64748b;">[ 输入层 ]</text>
    <g transform="translate(0, 0)">
      <rect width="180" height="65" rx="8" class="node-raw"/>
      <text x="15" y="25" class="v-label">泵 1 流量</text>
      <text x="15" y="48" class="text-code">pump_01.flow</text>
      <text x="130" y="40" fill="#0284c7" font-size="15" font-weight="800">92.1</text>
      <circle cx="160" cy="20" r="4" fill="#22c55e"><animate attributeName="opacity" values="1;0.3;1" dur="1.2s" repeatCount="indefinite"/></circle>
    </g>
    <g transform="translate(0, 85)">
      <rect width="180" height="65" rx="8" class="node-raw"/>
      <text x="15" y="25" class="v-label">泵 2 流量</text>
      <text x="15" y="48" class="text-code">pump_02.flow</text>
      <text x="130" y="40" fill="#0284c7" font-size="15" font-weight="800">94.4</text>
    </g>
    <g transform="translate(0, 192.5)">
      <rect width="180" height="65" rx="8" class="node-raw-amber"/>
      <text x="15" y="25" class="v-label">温度传感</text>
      <text x="15" y="48" class="text-code">temp_01..03</text>
      <text x="130" y="40" fill="#d97706" font-size="13" font-weight="800">3 路</text>
    </g>
    <g transform="translate(0, 332.5)">
      <rect width="180" height="65" rx="8" class="node-raw-gray"/>
      <text x="15" y="25" class="v-label">运行时长</text>
      <text x="15" y="48" class="text-code">runtime_hrs</text>
    </g>
  </g>

  <g transform="translate(480, 100)">
    <rect width="400" height="445" rx="12" fill="#ffffff" stroke="#cbd5e1" stroke-dasharray="6,4" fill-opacity="0.5"/>
    <text x="200" y="-20" text-anchor="middle" class="text-title" style="font-size:13px; fill:#64748b;">[ 计算引擎 - 聚合 DAG ]</text>

    <g transform="translate(100, 32.5)">
      <rect width="200" height="85" rx="10" class="node-calc" filter="url(#agg_glow)"/>
      <g clip-path="url(#clip_agg_a)"><rect width="200" height="26" class="title-bg"/></g>
      <text x="100" y="18" text-anchor="middle" style="font-size:11px; font-weight:bold; fill:#7c3aed">流量求和</text>
      <text x="100" y="58" text-anchor="middle" class="text-code" style="fill:#7c3aed">p1 + p2</text>
      <circle cx="0" cy="42.5" r="3" fill="#0ea5e9"/>
    </g>

    <g transform="translate(100, 182.5)">
      <rect width="200" height="85" rx="10" class="node-calc"/>
      <g clip-path="url(#clip_agg_b)"><rect width="200" height="26" class="title-bg-amber"/></g>
      <text x="100" y="18" text-anchor="middle" style="font-size:11px; font-weight:bold; fill:#b45309">温度平均</text>
      <text x="100" y="58" text-anchor="middle" class="text-code" style="fill:#b45309">avg(t1, t2, t3)</text>
      <circle cx="0" cy="42.5" r="3" fill="#f59e0b"/>
    </g>

    <g transform="translate(100, 322.5)">
      <rect width="200" height="85" rx="10" class="node-calc"/>
      <g clip-path="url(#clip_agg_c)"><rect width="200" height="26" class="title-bg"/></g>
      <text x="100" y="18" text-anchor="middle" style="font-size:11px; font-weight:bold; fill:#4338ca">OEE 计算</text>
      <text x="100" y="58" text-anchor="middle" class="text-code" style="fill:#4338ca">A × P × Q</text>
      <circle cx="0" cy="42.5" r="3" fill="#64748b"/>
    </g>
  </g>

  <g transform="translate(1020, 100)">
    <text x="0" y="-20" class="text-title" style="font-size:13px; fill:#64748b;">[ 聚合结果 ]</text>
    
    <g transform="translate(0, 20)">
      <rect width="260" height="110" rx="12" fill="url(#grad_blue)" stroke="#0ea5e9" class="v-panel"/>
      <text x="15" y="30" class="v-label">总流量 (m³/h)</text>
      <text x="15" y="65" class="v-value">186.5</text>
      <rect x="180" y="15" width="65" height="20" rx="10" fill="#dcfce7"/>
      <text x="212" y="29" text-anchor="middle" style="fill:#166534; font-size:10px; font-weight:bold">正常</text>
      <path class="sparkline" d="M15 95 Q 40 80, 60 90 T 100 85 T 140 95 T 180 85 T 240 90"/>
    </g>
    
    <g transform="translate(0, 170)">
      <rect width="260" height="110" rx="12" fill="url(#grad_amber)" stroke="#f59e0b" class="v-panel"/>
      <text x="15" y="30" class="v-label">平均温度 (℃)</text>
      <text x="15" y="65" class="v-value" style="fill:#b45309">42.7</text>
      <rect x="130" y="55" width="110" height="6" rx="3" fill="#fef3c7"/>
      <rect x="130" y="55" width="95" height="6" rx="3" fill="#f59e0b"/>
    </g>
    
    <g transform="translate(0, 310)">
      <rect width="260" height="110" rx="12" fill="url(#grad_purple)" stroke="#8b5cf6" class="v-panel"/>
      <text x="15" y="30" class="v-label">OEE 综合效率 (%)</text>
      <text x="15" y="65" class="v-value">87.3</text>
      <rect x="130" y="55" width="110" height="6" rx="3" fill="#ede9fe"/>
      <rect x="130" y="55" width="98" height="6" rx="3" fill="#8b5cf6"/>
      <text x="15" y="95" class="text-code">可用率 × 性能 × 质量</text>
    </g>
  </g>

  <circle r="3" fill="#0ea5e9"><animateMotion dur="2.5s" repeatCount="indefinite"><mpath href="#wire_p1_sum"/></animateMotion></circle>
  <circle r="3" fill="#0ea5e9"><animateMotion dur="2.8s" repeatCount="indefinite"><mpath href="#wire_p2_sum"/></animateMotion></circle>
  <circle r="3" fill="#f59e0b"><animateMotion dur="3s" repeatCount="indefinite"><mpath href="#wire_temp_avg"/></animateMotion></circle>
  <circle r="3" fill="#64748b"><animateMotion dur="3.2s" repeatCount="indefinite"><mpath href="#wire_rt_oee"/></animateMotion></circle>
  <circle r="4" fill="#8b5cf6" filter="url(#agg_glow)"><animateMotion dur="2s" begin="0.5s" repeatCount="indefinite"><mpath href="#wire_sum_out"/></animateMotion></circle>
  <circle r="4" fill="#f59e0b" filter="url(#agg_glow)"><animateMotion dur="2s" begin="1s" repeatCount="indefinite"><mpath href="#wire_avg_out"/></animateMotion></circle>
  <circle r="4" fill="#6366f1" filter="url(#agg_glow)"><animateMotion dur="2s" begin="1.5s" repeatCount="indefinite"><mpath href="#wire_oee_out"/></animateMotion></circle>
</svg>
