<?xml version="1.0" encoding="UTF-8"?>
<svg width="1400" height="700" viewBox="0 0 1400 700" xmlns="http://www.w3.org/2000/svg">
  <defs>
    <filter id="edge_glow" x="-20%" y="-20%" width="140%" height="140%">
      <feGaussianBlur stdDeviation="2" result="blur"/>
      <feComposite in="SourceGraphic" in2="blur" operator="over"/>
    </filter>
    <linearGradient id="grad_green" x1="0%" y1="0%" x2="100%" y2="100%">
      <stop offset="0%" stop-color="#ffffff"/>
      <stop offset="100%" stop-color="#f0fdf4"/>
    </linearGradient>
    <linearGradient id="grad_red" x1="0%" y1="0%" x2="100%" y2="100%">
      <stop offset="0%" stop-color="#ffffff"/>
      <stop offset="100%" stop-color="#fef2f2"/>
    </linearGradient>
    <linearGradient id="grad_amber" x1="0%" y1="0%" x2="100%" y2="100%">
      <stop offset="0%" stop-color="#ffffff"/>
      <stop offset="100%" stop-color="#fffbeb"/>
    </linearGradient>
    <style>
      .bg-sub { fill:#f8fafc; stroke:#e2e8f0; stroke-width:1; }
      .node-raw-amber { fill:#ffffff; stroke:#f59e0b; stroke-width:2; }
      .node-raw-red { fill:#ffffff; stroke:#ef4444; stroke-width:2; }
      .node-calc-amber { fill:#ffffff; stroke:#f59e0b; stroke-width:2; }
      .node-calc-red { fill:#ffffff; stroke:#ef4444; stroke-width:2; }
      .text-title { fill:#1e293b; font-family:'Segoe UI',sans-serif; font-weight:bold; font-size:16px; }
      .text-code { fill:#64748b; font-family:'Courier New',monospace; font-size:11px; }
      .flow-line { fill:none; stroke-width:2; marker-end:url(#arrowhead); }
      .v-panel { stroke-width:1.5; filter:drop-shadow(0 2px 4px rgba(0,0,0,0.05)); }
      .v-value { font-family:'Segoe UI',Arial; font-weight:800; font-size:22px; fill:#1e293b; }
      .v-label { font-size:13px; fill:#475569; font-weight:bold; }
      .title-bg-amber { fill:#fef3c7; }
      .title-bg-red { fill:#fee2e2; }
    </style>
    <marker id="arrowhead" viewBox="0 0 10 10" refX="9" refY="5" markerUnits="strokeWidth" markerWidth="5" markerHeight="5" orient="auto">
      <path d="M 0 1 L 10 5 L 0 9 z" fill="#cbd5e1"/>
    </marker>
  </defs>

  <rect width="1360" height="660" x="20" y="20" rx="15" class="bg-sub"/>
  <text x="700" y="55" text-anchor="middle" class="text-title" font-size="18">边缘实时决策：质量检测、安全联锁与毫秒级响应</text>

  <g id="logic-wires">
    <path id="wire_dim_qual" d="M 260 195 H 580" class="flow-line" style="stroke:#f59e0b;"/>
    <path id="wire_qual_pass" d="M 780 195 H 1020" class="flow-line" style="stroke:#22c55e;"/>

    <path id="wire_zone_safe" d="M 260 425 H 580" class="flow-line" style="stroke:#ef4444;"/>
    <path id="wire_safe_estop" d="M 780 425 H 1020" class="flow-line" style="stroke:#ef4444;"/>
  </g>

  <text x="80" y="115" class="text-title" style="font-size:13px; fill:#64748b;">[ 传感输入 ]</text>
  
  <g transform="translate(80, 150)">
    <rect width="180" height="90" rx="8" class="node-raw-amber"/>
    <path d="M15 35 L15 55 M15 35 L28 29 M15 55 L28 49" stroke="#d97706" stroke-width="1.5" fill="none"/>
    <path d="M32 35 L32 55 M32 35 L45 29 M32 55 L45 49" stroke="#d97706" stroke-width="1.5" fill="none"/>
    <text x="55" y="38" class="v-label">尺寸检测传感器</text>
    <text x="55" y="58" class="text-code">dim_sensor</text>
    <text x="55" y="75" fill="#d97706" font-size="14" font-weight="800">12.03 mm</text>
    <circle cx="160" cy="20" r="4" fill="#22c55e"><animate attributeName="opacity" values="1;0.3;1" dur="0.8s" repeatCount="indefinite"/></circle>
  </g>

  <g transform="translate(80, 380)">
    <rect width="180" height="90" rx="8" class="node-raw-red"/>
    <rect x="15" y="31" width="28" height="28" rx="4" fill="#fee2e2" stroke="#ef4444" stroke-width="1.5" stroke-dasharray="3 2"/>
    <circle cx="29" cy="45" r="6" fill="#ef4444" opacity="0.7"/>
    <text x="55" y="38" class="v-label">区域入侵传感器</text>
    <text x="55" y="58" class="text-code">proximity_zone</text>
    <rect x="55" y="65" width="60" height="18" rx="9" fill="#fee2e2"/>
    <text x="85" y="77" text-anchor="middle" fill="#991b1b" font-size="10" font-weight="bold">occupied</text>
  </g>


  <g transform="translate(480, 100)">
    <rect width="400" height="440" rx="12" fill="#ffffff" stroke="#fbbf24" stroke-dasharray="6,4" fill-opacity="0.5"/>
    <text x="200" y="-15" text-anchor="middle" class="text-title" style="font-size:13px; fill:#64748b;">[ 边缘决策引擎 - expr 规则 ]</text>

    <g transform="translate(100, 15)">
      <rect width="200" height="28" rx="8" fill="#fef3c7" stroke="#f59e0b" stroke-width="1"/>
      <text x="100" y="18" text-anchor="middle" style="font-size:11px; font-weight:bold; fill:#92400e;">本地 expr 评估 · 零上行延迟</text>
    </g>

    <g transform="translate(100, 50)">
      <rect width="200" height="90" rx="10" class="node-calc-amber" filter="url(#edge_glow)"/>
      <path d="M 0 0 h 200 v 26 a 0 0 0 0 1 0 0 h -200 a 0 0 0 0 1 0 0 z" class="title-bg-amber" style="border-radius: 10px 10px 0 0;"/>
      <rect width="200" height="26" rx="10" class="title-bg-amber"/>
      <rect width="200" height="15" y="11" fill="#fef3c7"/> 
      <text x="100" y="18" text-anchor="middle" style="font-size:12px; font-weight:bold; fill:#b45309;">质量判定规则</text>
      <text x="100" y="55" text-anchor="middle" class="text-code" font-size="12" style="fill:#b45309; font-weight:bold;">|dim - 12| &lt; 0.05</text>
      <text x="100" y="75" text-anchor="middle" fill="#64748b" font-size="10">结果评估: TRUE</text>
    </g>

    <g transform="translate(100, 280)">
      <rect width="200" height="90" rx="10" class="node-calc-red"/>
      <rect width="200" height="26" rx="10" class="title-bg-red"/>
      <rect width="200" height="15" y="11" fill="#fee2e2"/> 
      <text x="100" y="18" text-anchor="middle" style="font-size:12px; font-weight:bold; fill:#991b1b;">安全联锁规则</text>
      <text x="100" y="55" text-anchor="middle" class="text-code" font-size="12" style="fill:#991b1b; font-weight:bold;">zone == occupied</text>
      <text x="100" y="75" text-anchor="middle" fill="#64748b" font-size="10">结果评估: TRIGGERED</text>
    </g>

    <g transform="translate(55, 390)">
      <rect width="290" height="36" rx="8" fill="url(#grad_amber)" stroke="#fde68a" stroke-width="1"/>
      <text x="145" y="22" text-anchor="middle" style="font-size:11px; font-weight:bold; fill:#92400e;">毫秒级边缘闭环控制系统</text>
    </g>
  </g>


  <text x="1020" y="115" class="text-title" style="font-size:13px; fill:#64748b;">[ 执行结果 ]</text>

  <g transform="translate(1020, 130)">
    <rect width="260" height="130" rx="12" fill="url(#grad_green)" stroke="#22c55e" class="v-panel"/>
    <path d="M25 40 L25 65 Q25 80 43 84 Q61 80 61 65 L61 40 Q43 33 25 40" fill="#dcfce7" stroke="#16a34a" stroke-width="1.5"/>
    <path d="M35 57 L42 64 L53 50" stroke="#16a34a" stroke-width="2.5" fill="none" stroke-linecap="round"/>
    <text x="75" y="42" class="v-label">质量判定结果</text>
    <text x="75" y="75" class="v-value" style="fill:#166534;">PASS</text>
    <rect x="185" y="25" width="60" height="20" rx="10" fill="#dcfce7"/>
    <text x="215" y="39" text-anchor="middle" style="fill:#166534; font-size:10px; font-weight:bold">自动放行</text>
    <text x="75" y="105" class="text-code">符合标准 · 产线正常运转</text>
  </g>

  <g transform="translate(1020, 360)">
    <rect width="260" height="130" rx="12" fill="url(#grad_red)" stroke="#ef4444" class="v-panel"/>
    <circle cx="45" cy="60" r="26" fill="#fee2e2" stroke="#b91c1c" stroke-width="2"/>
    <circle cx="45" cy="60" r="18" fill="#ef4444" stroke="#991b1b" stroke-width="1.5">
      <animate attributeName="fill" values="#ef4444;#dc2626;#ef4444" dur="1s" repeatCount="indefinite"/>
    </circle>
    <text x="45" y="64" text-anchor="middle" fill="#fff" font-size="9" font-weight="bold">E-STOP</text>
    <text x="85" y="42" class="v-label">安全控制状态</text>
    <text x="85" y="75" class="v-value" style="fill:#dc2626; font-size:22px;">自动停机</text>
    <rect x="185" y="25" width="60" height="20" rx="10" fill="#fee2e2"/>
    <text x="215" y="39" text-anchor="middle" style="fill:#991b1b; font-size:10px; font-weight:bold">紧急切断</text>
    <text x="85" y="105" class="text-code">危险入侵 · 触发安全联锁</text>
  </g>


  <g transform="translate(560, 580)">
    <rect width="280" height="40" rx="20" fill="#1e293b" stroke="#334155" stroke-width="2"/>
    <circle cx="30" cy="20" r="6" fill="#22c55e">
      <animate attributeName="opacity" values="1;0.4;1" dur="1s" repeatCount="indefinite"/>
    </circle>
    <text x="155" y="25" text-anchor="middle" fill="#ffffff" font-size="14" font-weight="bold" font-family="'Segoe UI',sans-serif">全链路决策延迟 &lt; 5ms</text>
  </g>


  <circle r="4" fill="#f59e0b" filter="url(#edge_glow)"><animateMotion dur="1.5s" repeatCount="indefinite"><mpath href="#wire_dim_qual"/></animateMotion></circle>
  <circle r="4" fill="#22c55e" filter="url(#edge_glow)"><animateMotion dur="1.2s" begin="0.2s" repeatCount="indefinite"><mpath href="#wire_qual_pass"/></animateMotion></circle>
  
  <circle r="4" fill="#ef4444" filter="url(#edge_glow)"><animateMotion dur="1.4s" repeatCount="indefinite"><mpath href="#wire_zone_safe"/></animateMotion></circle>
  <circle r="4" fill="#ef4444" filter="url(#edge_glow)"><animateMotion dur="1.1s" begin="0.3s" repeatCount="indefinite"><mpath href="#wire_safe_estop"/></animateMotion></circle>
</svg>
